# xmcd CD database file
#
# Track frame offsets:
#	150
#	21115
#	37037
#	53255
#	68415
#	83062
#	97702
#	114537
#	127232
#	148600
#	163030
#	179377
#
# Disc length: 2526 seconds
#
# Revision: 0
# Processed by: cddbd v1.5.1PL0 Copyright (c) Steve Scherf et al.
# Submitted via: CDex 1.51
#
DISCID=9409dc0c
DTITLE=アグネス・チャン - はじめまして青春　Disc 1
DYEAR=1975
DGENRE=J-Pop
TTITLE0=思い出をあける鍵
TTITLE1=愛の迷い子
TTITLE2=恋人たちの午後
TTITLE3=Have You Never Been Mellow
TTITLE4=はだしの冒険
TTITLE5=海岸通
TTITLE6=白いくつ下は似合わない
TTITLE7=冬の日の帰り道
TTITLE8=Sunshine On My Shoulders
TTITLE9=Please Mister Postman
TTITLE10=Plaisir D'amour
TTITLE11=思い出をしまう鍵
EXTD=YEAR: 1975
EXTT0=
EXTT1=
EXTT2=
EXTT3=
EXTT4=
EXTT5=
EXTT6=
EXTT7=
EXTT8=
EXTT9=
EXTT10=
EXTT11=
PLAYORDER=
